<?xml version="1.0" encoding="UTF-8" standalone="no"?><!DOCTYPE svg PUBLIC "-//W3C//DTD SVG 1.1//EN" "http://www.w3.org/Graphics/SVG/1.1/DTD/svg11.dtd"><svg width="100%" height="100%" viewBox="0 0 16 16" version="1.1" xmlns="http://www.w3.org/2000/svg" xmlns:xlink="http://www.w3.org/1999/xlink" xml:space="preserve" xmlns:serif="http://www.serif.com/" style="fill-rule:evenodd;clip-rule:evenodd;stroke-linejoin:round;stroke-miterlimit:2;"><path d="M11.304,7.775c0.02,0.856 -0.171,1.635 -0.752,2.285c-0.082,0.086 -0.165,0.17 -0.25,0.253c-0.044,0.044 -0.089,0.088 -0.134,0.133c-0.68,0.647 -1.42,0.837 -2.348,0.817c-0.939,-0.075 -1.667,-0.497 -2.278,-1.193c-0.608,-0.726 -0.787,-1.567 -0.721,-2.497c0.127,-0.953 0.686,-1.642 1.409,-2.233c0.698,-0.489 1.549,-0.664 2.388,-0.519c1.419,0.321 2.538,1.476 2.686,2.954Z" style="fill:#15263d;fill-rule:nonzero;"/><path d="M2.885,3.265c0.046,0.046 0.093,0.092 0.142,0.14c0.075,0.074 0.075,0.074 0.151,0.151c0.053,0.051 0.104,0.102 0.158,0.155c0.109,0.109 0.219,0.217 0.328,0.326c0.166,0.167 0.335,0.332 0.504,0.497c0.105,0.105 0.21,0.21 0.317,0.316c0.05,0.05 0.101,0.099 0.153,0.15c0.047,0.046 0.093,0.093 0.14,0.141c0.042,0.04 0.083,0.081 0.125,0.124c0.105,0.146 0.11,0.22 0.087,0.397c-0.047,0.119 -0.047,0.119 -0.114,0.238c-0.024,0.045 -0.047,0.09 -0.072,0.136c-0.025,0.046 -0.051,0.094 -0.078,0.143c-0.24,0.459 -0.398,0.892 -0.471,1.411c-0.009,0.066 -0.019,0.132 -0.029,0.201c-0.069,0.897 0.267,1.717 0.746,2.455c0.082,0.183 0.065,0.272 0.018,0.466c-0.089,0.123 -0.089,0.123 -0.207,0.241c-0.045,0.044 -0.089,0.089 -0.135,0.135c-0.072,0.071 -0.072,0.071 -0.146,0.143c-0.049,0.049 -0.098,0.098 -0.15,0.148c-0.104,0.104 -0.208,0.207 -0.314,0.311c-0.16,0.158 -0.32,0.316 -0.479,0.476c-0.102,0.1 -0.204,0.2 -0.305,0.302c-0.049,0.047 -0.096,0.094 -0.146,0.144c-0.045,0.044 -0.089,0.087 -0.135,0.133c-0.039,0.039 -0.079,0.077 -0.119,0.117c-0.109,0.096 -0.216,0.168 -0.342,0.238c-0.34,-0.238 -0.555,-0.484 -0.779,-0.83c-0.047,-0.073 -0.047,-0.073 -0.096,-0.147c-1.056,-1.654 -1.496,-3.702 -1.071,-5.631c0.306,-1.277 0.829,-2.465 1.715,-3.447c0.061,-0.032 0.122,-0.061 0.184,-0.092c0.18,0.089 0.277,0.172 0.42,0.312Z" style="fill:#b9464c;fill-rule:nonzero;"/><path d="M13.072,2.448c-0.147,0.355 -0.374,0.583 -0.642,0.85c-0.046,0.045 -0.09,0.09 -0.137,0.136c-0.095,0.095 -0.189,0.19 -0.284,0.283c-0.145,0.145 -0.29,0.29 -0.434,0.435c-0.092,0.093 -0.184,0.184 -0.276,0.276c-0.043,0.044 -0.086,0.087 -0.13,0.132c-0.408,0.4 -0.408,0.4 -0.668,0.459c-0.14,-0.041 -0.14,-0.041 -0.281,-0.121c-0.079,-0.043 -0.079,-0.043 -0.159,-0.086c-0.055,-0.031 -0.11,-0.063 -0.166,-0.095c-0.927,-0.491 -1.808,-0.661 -2.847,-0.396c-0.401,0.128 -0.77,0.321 -1.138,0.521c-0.121,0.064 -0.244,0.121 -0.368,0.176c-0.18,-0.089 -0.274,-0.169 -0.415,-0.31l-1.968,-1.968c-0.096,-0.109 -0.096,-0.109 -0.188,-0.293c0.188,-0.313 0.428,-0.481 0.729,-0.677c0.072,-0.048 0.072,-0.048 0.147,-0.096c1.121,-0.72 2.372,-1.201 3.715,-1.247c0.047,-0.002 0.094,-0.004 0.142,-0.005c0.625,-0.018 1.221,-0.006 1.832,0.143c0.041,0.009 0.081,0.018 0.124,0.028c1.13,0.256 2.758,0.834 3.412,1.855Z" style="fill:#b9464c;fill-rule:nonzero;"/><path d="M13.622,2.999c1.182,1.044 1.78,2.646 1.975,4.177c0.011,0.079 0.022,0.159 0.033,0.24c0.207,1.74 -0.349,3.62 -1.365,5.04c-0.194,0.236 -0.411,0.444 -0.643,0.643c-0.18,-0.098 -0.316,-0.211 -0.461,-0.356l-1.924,-1.924c-0.094,-0.107 -0.094,-0.107 -0.186,-0.291c0.046,-0.124 0.046,-0.124 0.126,-0.267c0.028,-0.052 0.057,-0.105 0.086,-0.159c0.03,-0.056 0.061,-0.112 0.092,-0.171c0.48,-0.918 0.657,-1.808 0.424,-2.83c-0.132,-0.382 -0.326,-0.732 -0.529,-1.079c-0.029,-0.054 -0.057,-0.106 -0.087,-0.16c-0.027,-0.046 -0.054,-0.093 -0.082,-0.141c-0.038,-0.192 0.018,-0.293 0.12,-0.457c0.142,-0.192 0.305,-0.36 0.475,-0.527c0.038,-0.038 0.075,-0.077 0.115,-0.116c0.08,-0.08 0.161,-0.161 0.242,-0.241c0.122,-0.121 0.244,-0.244 0.365,-0.366c0.384,-0.385 0.751,-0.739 1.224,-1.015Z" style="fill:#ba464c;fill-rule:nonzero;"/><path d="M10.96,11.343l0.76,0.76c0.162,0.164 0.327,0.327 0.49,0.49l0.598,0.598c0.039,0.039 0.08,0.08 0.12,0.122c0.098,0.108 0.098,0.108 0.189,0.292c-0.17,0.268 -0.366,0.446 -0.625,0.625c-0.04,0.028 -0.079,0.055 -0.12,0.083c-1.311,0.878 -2.737,1.263 -4.305,1.312c-0.051,0.003 -0.101,0.007 -0.154,0.01c-1.475,0.068 -3.194,-0.579 -4.346,-1.48c-0.101,-0.094 -0.199,-0.191 -0.295,-0.29c-0.049,-0.048 -0.097,-0.098 -0.147,-0.147c-0.054,-0.056 -0.054,-0.056 -0.108,-0.113c0.212,-0.365 0.451,-0.663 0.751,-0.96c0.041,-0.04 0.08,-0.081 0.123,-0.124c0.084,-0.085 0.169,-0.169 0.255,-0.254c0.131,-0.129 0.259,-0.259 0.388,-0.389c0.083,-0.084 0.166,-0.166 0.25,-0.248c0.038,-0.04 0.076,-0.078 0.116,-0.118c0.21,-0.208 0.401,-0.382 0.688,-0.478c0.146,0.034 0.146,0.034 0.287,0.116c0.053,0.028 0.106,0.057 0.16,0.086c0.055,0.032 0.11,0.063 0.166,0.096c0.493,0.263 0.937,0.468 1.499,0.528c0.058,0.006 0.117,0.013 0.177,0.019c0.836,0.044 1.595,-0.277 2.312,-0.672c0.117,-0.062 0.237,-0.118 0.357,-0.173c0.18,0.089 0.273,0.17 0.414,0.309Z" style="fill:#b9464c;fill-rule:nonzero;"/></svg>