<?xml version="1.0" encoding="UTF-8" standalone="no"?><!DOCTYPE svg PUBLIC "-//W3C//DTD SVG 1.1//EN" "http://www.w3.org/Graphics/SVG/1.1/DTD/svg11.dtd">
<svg width="100%" height="100%" viewBox="0 0 16 16" version="1.1" xmlns="http://www.w3.org/2000/svg" xmlns:xlink="http://www.w3.org/1999/xlink" xml:space="preserve" xmlns:serif="http://www.serif.com/" style="fill-rule:evenodd;clip-rule:evenodd;stroke-linejoin:round;stroke-miterlimit:2;"><path d="M9.866,5.187c0.62,0.591 1.035,1.277 1.084,2.147c0.003,0.119 0.003,0.237 0.002,0.356c0,0.062 -0,0.125 -0.001,0.189c-0.023,0.938 -0.412,1.596 -1.082,2.238c-0.717,0.611 -1.53,0.827 -2.455,0.767c-0.943,-0.084 -1.664,-0.552 -2.275,-1.256c-0.584,-0.763 -0.676,-1.646 -0.583,-2.575c0.148,-0.839 0.626,-1.565 1.322,-2.056c1.23,-0.776 2.838,-0.751 3.988,0.19Z" style="fill:#15263d;fill-rule:nonzero;"/><path d="M0.724,7.951c0.065,-0 0.131,-0.001 0.199,-0.002c0.106,0 0.106,0 0.214,-0c0.073,-0.001 0.146,-0.001 0.221,-0.002c0.154,-0 0.308,-0.001 0.462,-0.001c0.236,-0 0.472,-0.002 0.708,-0.005c0.149,0 0.298,-0 0.448,-0.001c0.071,-0 0.141,-0.001 0.214,-0.002c0.066,0 0.132,0 0.199,0.001c0.058,-0.001 0.116,-0.001 0.176,-0.001c0.178,0.029 0.233,0.078 0.342,0.219c0.051,0.118 0.051,0.118 0.088,0.249c0.015,0.049 0.03,0.097 0.045,0.147c0.015,0.051 0.03,0.103 0.046,0.156c0.155,0.495 0.349,0.913 0.665,1.331c0.04,0.053 0.08,0.107 0.122,0.163c0.585,0.683 1.402,1.025 2.263,1.209c0.187,0.071 0.238,0.146 0.342,0.316c0.024,0.15 0.024,0.15 0.024,0.317c-0,0.063 0,0.126 0,0.191c-0.001,0.101 -0.001,0.101 -0.002,0.204c-0,0.07 -0,0.139 -0.001,0.211c-0,0.147 -0.001,0.294 -0.002,0.442c-0.002,0.225 -0.003,0.45 -0.003,0.675c-0.001,0.143 -0.002,0.286 -0.002,0.429c-0.001,0.068 -0.001,0.135 -0.001,0.205c-0.001,0.063 -0.001,0.125 -0.002,0.19c-0,0.055 -0.001,0.111 -0.001,0.167c-0.009,0.145 -0.034,0.271 -0.074,0.41c-0.408,0.072 -0.734,0.05 -1.137,-0.036c-0.085,-0.018 -0.085,-0.018 -0.172,-0.036c-1.916,-0.423 -3.675,-1.56 -4.739,-3.224c-0.687,-1.12 -1.157,-2.33 -1.225,-3.651c0.021,-0.065 0.043,-0.129 0.065,-0.195c0.191,-0.064 0.318,-0.074 0.518,-0.076Z" style="fill:#b9464c;fill-rule:nonzero;"/><path d="M7.349,0.17c0.148,0.355 0.148,0.677 0.147,1.055c-0,0.064 -0,0.127 0,0.193c0,0.134 -0,0.268 -0.001,0.401c-0,0.205 0,0.41 0.001,0.614c0,0.131 -0,0.261 -0,0.391c-0,0.061 0,0.122 0.001,0.185c-0.005,0.571 -0.005,0.571 -0.148,0.797c-0.128,0.07 -0.128,0.07 -0.284,0.113c-0.086,0.025 -0.086,0.025 -0.173,0.051c-0.061,0.017 -0.122,0.034 -0.185,0.051c-1.002,0.308 -1.746,0.811 -2.293,1.733c-0.193,0.374 -0.317,0.771 -0.436,1.173c-0.04,0.131 -0.087,0.258 -0.136,0.385c-0.19,0.064 -0.313,0.074 -0.512,0.074c-0.064,-0 -0.128,0 -0.195,0c-0.069,0 -0.138,0 -0.21,0c-0.107,0 -0.107,0 -0.216,0c-0.151,0 -0.302,0 -0.453,-0c-0.231,-0 -0.462,-0 -0.694,0c-0.146,0 -0.292,0 -0.439,0c-0.104,0 -0.104,0 -0.21,0c-0.065,0 -0.129,0 -0.195,-0c-0.057,-0 -0.113,-0 -0.172,-0c-0.145,-0.009 -0.145,-0.009 -0.34,-0.074c-0.088,-0.355 -0.037,-0.643 0.037,-0.994c0.017,-0.086 0.017,-0.086 0.036,-0.173c0.284,-1.301 0.828,-2.526 1.745,-3.508c0.032,-0.034 0.064,-0.069 0.097,-0.104c0.429,-0.455 0.859,-0.868 1.397,-1.194c0.035,-0.023 0.07,-0.045 0.107,-0.068c0.98,-0.618 2.54,-1.361 3.724,-1.101Z" style="fill:#b9464c;fill-rule:nonzero;"/><path d="M8.128,0.17c1.574,-0.097 3.129,0.613 4.35,1.558c0.064,0.048 0.128,0.096 0.193,0.146c1.377,1.084 2.313,2.807 2.599,4.529c0.029,0.304 0.023,0.605 0,0.909c-0.197,0.058 -0.373,0.074 -0.578,0.074c-0.063,-0 -0.126,0 -0.191,0c-0.067,0 -0.135,0 -0.205,0c-0.07,0 -0.139,0 -0.211,0c-0.148,0 -0.295,0 -0.443,-0c-0.226,-0 -0.452,-0 -0.678,0c-0.143,0 -0.286,0 -0.429,0c-0.102,0 -0.102,0 -0.205,0c-0.063,0 -0.126,0 -0.191,-0c-0.055,-0 -0.111,-0 -0.168,-0c-0.142,-0.009 -0.142,-0.009 -0.337,-0.074c-0.055,-0.12 -0.055,-0.12 -0.1,-0.277c-0.017,-0.057 -0.034,-0.115 -0.052,-0.174c-0.018,-0.061 -0.036,-0.122 -0.055,-0.186c-0.31,-0.988 -0.814,-1.743 -1.702,-2.301c-0.363,-0.176 -0.748,-0.287 -1.137,-0.389c-0.058,-0.017 -0.115,-0.034 -0.174,-0.051c-0.052,-0.014 -0.104,-0.028 -0.158,-0.042c-0.163,-0.109 -0.195,-0.22 -0.238,-0.408c-0.036,-0.236 -0.039,-0.47 -0.037,-0.708c-0,-0.054 -0.001,-0.108 -0.001,-0.164c0,-0.113 0,-0.227 0.001,-0.341c0.001,-0.172 0,-0.345 -0.001,-0.517c-0,-0.544 0.009,-1.054 0.148,-1.584Z" style="fill:#ba464c;fill-rule:nonzero;"/><path d="M12.146,7.953c0.097,0 0.097,0 0.195,-0c0.069,-0 0.139,0 0.21,0c0.072,0 0.143,0 0.217,-0c0.15,-0 0.301,0 0.452,0c0.231,0.001 0.463,0 0.694,-0c0.146,-0 0.293,0 0.439,0c0.07,0 0.139,-0 0.211,-0c0.064,-0 0.128,0 0.195,0c0.056,0 0.113,0 0.171,0.001c0.146,0.008 0.146,0.008 0.34,0.073c0.07,0.31 0.057,0.575 0,0.884c-0.008,0.048 -0.017,0.095 -0.026,0.144c-0.306,1.547 -1.042,2.828 -2.116,3.972c-0.034,0.038 -0.067,0.076 -0.102,0.116c-0.995,1.091 -2.668,1.849 -4.119,2.026c-0.138,0.005 -0.276,0.006 -0.414,0.004c-0.069,-0 -0.138,-0.001 -0.208,-0.001c-0.078,-0.001 -0.078,-0.001 -0.157,-0.003c-0.108,-0.408 -0.149,-0.788 -0.147,-1.21c-0,-0.057 -0.001,-0.114 -0.001,-0.174c0,-0.12 0,-0.24 0.001,-0.36c0.001,-0.184 0,-0.367 -0.001,-0.55c0,-0.118 0,-0.235 0.001,-0.352c-0.001,-0.055 -0.001,-0.109 -0.001,-0.165c0.002,-0.296 0.014,-0.554 0.148,-0.825c0.128,-0.079 0.128,-0.079 0.286,-0.121c0.057,-0.017 0.115,-0.034 0.174,-0.052c0.061,-0.016 0.122,-0.033 0.185,-0.05c0.534,-0.162 0.993,-0.331 1.433,-0.686c0.046,-0.037 0.092,-0.074 0.139,-0.112c0.622,-0.56 0.932,-1.324 1.16,-2.11c0.038,-0.127 0.083,-0.251 0.129,-0.375c0.191,-0.064 0.314,-0.073 0.512,-0.074Z" style="fill:#b9464c;fill-rule:nonzero;"/></svg>