<?xml version="1.0" encoding="UTF-8"?>
<svg version="1.1" xmlns="http://www.w3.org/2000/svg" width="264" height="264">
<path d="M0 0 C9.55701085 9.11349687 15.94844527 19.67688784 16.703125 33.0703125 C16.73718434 34.89684759 16.74709359 36.72397291 16.734375 38.55078125 C16.72865479 39.51201904 16.72293457 40.47325684 16.71704102 41.46362305 C16.35584788 55.90770014 10.36033797 66.04126882 0.046875 75.92578125 C-10.99284425 85.33207266 -23.51727381 88.65882079 -37.765625 87.73828125 C-52.28193839 86.44516138 -63.38109806 79.24253492 -72.80078125 68.39453125 C-81.78707033 56.64176252 -83.20025523 43.05633047 -81.765625 28.73828125 C-79.49456976 15.82417423 -72.13477977 4.64264335 -61.41796875 -2.91796875 C-42.46528986 -14.86958078 -17.70614097 -14.48002207 0 0 Z " fill="#15263D" transform="translate(164.765625,94.26171875)"/>
<path d="M0 0 C1.01114868 -0.00960754 2.02229736 -0.01921509 3.06408691 -0.02911377 C4.7000885 -0.03548859 4.7000885 -0.03548859 6.36914062 -0.04199219 C7.48977905 -0.04769226 8.61041748 -0.05339233 9.76501465 -0.05926514 C12.13548844 -0.06871402 14.50597535 -0.07524867 16.87646484 -0.07910156 C20.51097304 -0.0888286 24.14492092 -0.11986237 27.77929688 -0.15136719 C30.08007476 -0.15789507 32.38085669 -0.16314638 34.68164062 -0.16699219 C35.77230835 -0.17933899 36.86297607 -0.19168579 37.98669434 -0.20440674 C38.99784302 -0.20140564 40.0089917 -0.19840454 41.05078125 -0.1953125 C41.94108032 -0.19895813 42.83137939 -0.20260376 43.74865723 -0.20635986 C46.49171075 0.2364026 47.34203698 0.99703441 49.02539062 3.16113281 C49.80566406 4.97949219 49.80566406 4.97949219 50.38476562 7.00488281 C50.60986816 7.75165283 50.8349707 8.49842285 51.06689453 9.26782227 C51.30069824 10.05761475 51.53450195 10.84740723 51.77539062 11.66113281 C54.17076998 19.29935869 57.16161964 25.73162733 62.02539062 32.16113281 C62.6415625 32.99 63.25773437 33.81886719 63.89257812 34.67285156 C72.9158524 45.20000488 85.49047442 50.46720792 98.74804688 53.29003906 C101.63764886 54.39532421 102.41937793 55.54124868 104.02539062 58.16113281 C104.3928833 60.47546387 104.3928833 60.47546387 104.38183594 63.04980469 C104.38483704 64.01760864 104.38783813 64.9854126 104.39093018 65.98254395 C104.37240997 67.54047668 104.37240997 67.54047668 104.35351562 69.12988281 C104.35164246 70.20234253 104.34976929 71.27480225 104.34783936 72.37976074 C104.34112052 74.64594636 104.32720942 76.91212042 104.30664062 79.17822266 C104.27550939 82.64789609 104.26567083 86.11711485 104.25976562 89.58691406 C104.25059434 91.78874252 104.24021818 93.99056635 104.22851562 96.19238281 C104.22426575 97.23100464 104.22001587 98.26962646 104.21563721 99.33972168 C104.20602966 100.30752563 104.19642212 101.27532959 104.18652344 102.27246094 C104.17969543 103.12199341 104.17286743 103.97152588 104.16583252 104.84680176 C104.03058159 107.07559123 103.64419224 109.02095959 103.02539062 111.16113281 C96.75614129 112.26112725 91.72710379 111.92441185 85.52539062 110.59863281 C84.21598511 110.3245459 84.21598511 110.3245459 82.88012695 110.04492188 C53.37272773 103.53732084 26.27123126 86.02476063 9.89550781 60.39257812 C-0.68850726 43.15467647 -7.92966954 24.51258007 -8.97460938 4.16113281 C-8.64460937 3.17113281 -8.31460937 2.18113281 -7.97460938 1.16113281 C-5.02731686 0.17870198 -3.07421393 0.02357718 0 0 Z " fill="#B9464C" transform="translate(23.974609375,136.8388671875)"/>
<path d="M0 0 C2.28048928 5.47079641 2.29076236 10.43182494 2.265625 16.25390625 C2.26753845 17.23238022 2.2694519 18.21085419 2.27142334 19.21897888 C2.27278025 21.28067279 2.26911841 23.34237539 2.26074219 25.40405273 C2.25002425 28.55537113 2.2606603 31.70612097 2.2734375 34.85742188 C2.27211604 36.86458459 2.26955394 38.87174695 2.265625 40.87890625 C2.26967346 41.81859756 2.27372192 42.75828888 2.27789307 43.72645569 C2.21500927 52.51607365 2.21500927 52.51607365 0 56 C-1.96435547 57.08325195 -1.96435547 57.08325195 -4.3671875 57.73828125 C-5.68734863 58.12560425 -5.68734863 58.12560425 -7.03417969 58.52075195 C-7.97165039 58.78202881 -8.90912109 59.04330566 -9.875 59.3125 C-25.31167379 64.05652344 -36.77053511 71.79773107 -45.1875 86 C-48.17178748 91.75304308 -50.07966726 97.86999063 -51.90893555 104.0703125 C-52.5209711 106.07482011 -53.25170424 108.04227384 -54 110 C-56.93479445 110.97826482 -58.82617152 111.12660743 -61.8828125 111.12939453 C-62.87394043 111.13254669 -63.86506836 111.13569885 -64.88623047 111.13894653 C-65.95502441 111.1369223 -67.02381836 111.13489807 -68.125 111.1328125 C-69.77266357 111.13424759 -69.77266357 111.13424759 -71.45361328 111.13571167 C-73.77701881 111.13639245 -76.10042624 111.13454525 -78.42382812 111.13037109 C-81.98572043 111.12502145 -85.54748663 111.13031956 -89.109375 111.13671875 C-91.36458361 111.13605795 -93.61979215 111.13477675 -95.875 111.1328125 C-97.47819092 111.13584885 -97.47819092 111.13584885 -99.11376953 111.13894653 C-100.10489746 111.13579437 -101.09602539 111.13264221 -102.1171875 111.12939453 C-102.98972168 111.12859894 -103.86225586 111.12780334 -104.76123047 111.12698364 C-107 111 -107 111 -110 110 C-111.35472755 104.51910879 -110.57693055 100.09745381 -109.4375 94.6875 C-109.16123779 93.36516357 -109.16123779 93.36516357 -108.87939453 92.01611328 C-104.49583407 71.98572733 -96.11631745 53.11826428 -82 38 C-81.5059668 37.47035645 -81.01193359 36.94071289 -80.50292969 36.39501953 C-73.89921159 29.38334198 -67.27148721 23.02868825 -59 18 C-58.45601562 17.65517578 -57.91203125 17.31035156 -57.3515625 16.95507812 C-42.25712407 7.4469002 -18.22132388 -4.00590937 0 0 Z " fill="#B9464C" transform="translate(126,17)"/>
<path d="M0 0 C24.24310199 -1.49443779 48.19511433 9.4464269 67 24 C67.98097656 24.73992188 68.96195312 25.47984375 69.97265625 26.2421875 C91.17837102 42.93313719 105.58362776 69.47323701 110 96 C110.43726057 100.6762013 110.34368013 105.3183129 110 110 C106.96248984 110.8823266 104.25397746 111.12644702 101.09545898 111.12939453 C100.12442734 111.13254669 99.15339569 111.13569885 98.15293884 111.13894653 C97.11117996 111.1369223 96.06942108 111.13489807 94.99609375 111.1328125 C93.92126236 111.13376923 92.84643097 111.13472595 91.73902893 111.13571167 C89.4686782 111.13639173 87.19832551 111.13454955 84.92797852 111.13037109 C81.44738414 111.12501521 77.96691851 111.13032467 74.48632812 111.13671875 C72.28124971 111.13605804 70.07617138 111.13477703 67.87109375 111.1328125 C66.30541908 111.13584885 66.30541908 111.13584885 64.70811462 111.13894653 C63.74023514 111.13579437 62.77235565 111.13264221 61.77514648 111.12939453 C60.9233934 111.12859894 60.07164032 111.12780334 59.19407654 111.12698364 C57 111 57 111 54 110 C53.14379883 108.14916992 53.14379883 108.14916992 52.45703125 105.73046875 C52.19212891 104.84697754 51.92722656 103.96348633 51.65429688 103.05322266 C51.37650391 102.10753418 51.09871094 101.1618457 50.8125 100.1875 C46.03993547 84.96404552 38.27266106 73.34733822 24.58984375 64.75 C19.01104455 62.03041127 13.08020812 60.32858594 7.08544922 58.74804688 C6.20002441 58.49087891 5.31459961 58.23371094 4.40234375 57.96875 C3.60304443 57.75669922 2.80374512 57.54464844 1.98022461 57.32617188 C-0.54025005 55.63819032 -1.02809308 53.93831824 -1.6917572 51.03713989 C-2.24199595 47.40067765 -2.2845496 43.80891429 -2.265625 40.13671875 C-2.26753845 39.30469437 -2.2694519 38.47266998 -2.27142334 37.61543274 C-2.27277783 35.86316626 -2.26913309 34.11088949 -2.26074219 32.35864258 C-2.25007302 29.70565701 -2.26064146 27.05335482 -2.2734375 24.40039062 C-2.27935484 16.01759482 -2.13267598 8.16679494 0 0 Z " fill="#BA464C" transform="translate(138,17)"/>
<path d="M0 0 C1.48669189 -0.00472824 1.48669189 -0.00472824 3.00341797 -0.009552 C4.07221191 -0.00752777 5.14100586 -0.00550354 6.2421875 -0.00341797 C7.34062988 -0.00437469 8.43907227 -0.00533142 9.57080078 -0.00631714 C11.89420631 -0.00699792 14.21761374 -0.00515072 16.54101562 -0.00097656 C20.10290793 0.00437308 23.66467413 -0.00092503 27.2265625 -0.00732422 C29.48177111 -0.00666342 31.73697965 -0.00538222 33.9921875 -0.00341797 C35.06098145 -0.0054422 36.12977539 -0.00746643 37.23095703 -0.009552 C38.22208496 -0.00639984 39.21321289 -0.00324768 40.234375 0 C41.10690918 0.00079559 41.97944336 0.00159119 42.87841797 0.00241089 C45.1171875 0.12939453 45.1171875 0.12939453 48.1171875 1.12939453 C49.18095058 5.90155389 48.9865238 9.99438519 48.1171875 14.75439453 C47.98473633 15.48368164 47.85228516 16.21296875 47.71582031 16.96435547 C42.99862759 40.79171062 31.658745 60.52358242 15.1171875 78.12939453 C14.6015625 78.72107422 14.0859375 79.31275391 13.5546875 79.92236328 C-1.77423633 96.7282928 -27.54006421 108.39861418 -49.8828125 111.12939453 C-52.00693246 111.19399672 -54.13284155 111.21550532 -56.2578125 111.19189453 C-57.31742188 111.18287109 -58.37703125 111.17384766 -59.46875 111.16455078 C-60.66371094 111.14714844 -60.66371094 111.14714844 -61.8828125 111.12939453 C-63.53562204 104.83735006 -64.18005306 98.986488 -64.1484375 92.49267578 C-64.15035095 91.60960251 -64.1522644 90.72652924 -64.15423584 89.81669617 C-64.15558704 87.965441 -64.15196572 86.11417601 -64.14355469 84.26293945 C-64.13280114 81.43891114 -64.14350605 78.61551327 -64.15625 75.79150391 C-64.15492897 73.98355981 -64.15236774 72.17561609 -64.1484375 70.36767578 C-64.15248596 69.53005203 -64.15653442 68.69242828 -64.16070557 67.829422 C-64.12439789 63.27191014 -63.94771355 59.29604841 -61.8828125 55.12939453 C-59.90258789 53.91674805 -59.90258789 53.91674805 -57.48046875 53.25830078 C-56.59512451 52.99799072 -55.70978027 52.73768066 -54.79760742 52.46948242 C-53.8563501 52.21287842 -52.91509277 51.95627441 -51.9453125 51.69189453 C-43.72411276 49.19938161 -36.64713098 46.602995 -29.8828125 41.12939453 C-29.17382812 40.55962891 -28.46484375 39.98986328 -27.734375 39.40283203 C-18.15253225 30.77550235 -13.37667128 19.00855345 -9.87255859 6.90722656 C-9.2911992 4.95500208 -8.59595759 3.03742578 -7.8828125 1.12939453 C-4.94801805 0.15112972 -3.05664098 0.0027871 0 0 Z " fill="#B9464C" transform="translate(199.8828125,136.87060546875)"/>
</svg>
