<?xml version="1.0" encoding="UTF-8" standalone="no"?><!DOCTYPE svg PUBLIC "-//W3C//DTD SVG 1.1//EN" "http://www.w3.org/Graphics/SVG/1.1/DTD/svg11.dtd"><svg width="100%" height="100%" viewBox="0 0 16 16" version="1.1" xmlns="http://www.w3.org/2000/svg" xmlns:xlink="http://www.w3.org/1999/xlink" xml:space="preserve" xmlns:serif="http://www.serif.com/" style="fill-rule:evenodd;clip-rule:evenodd;stroke-linejoin:round;stroke-miterlimit:2;"><path d="M11.073,7.75c0.019,0.821 -0.164,1.568 -0.721,2.191c-0.079,0.083 -0.159,0.163 -0.24,0.243c-0.042,0.042 -0.086,0.084 -0.129,0.127c-0.652,0.621 -1.362,0.803 -2.252,0.784c-0.9,-0.072 -1.598,-0.477 -2.184,-1.144c-0.584,-0.696 -0.755,-1.503 -0.692,-2.395c0.122,-0.914 0.658,-1.575 1.351,-2.142c0.67,-0.469 1.486,-0.636 2.291,-0.497c1.361,0.307 2.434,1.415 2.576,2.833Z" style="fill:#5776a1;fill-rule:nonzero;"/><path d="M2.514,3.424c0.044,0.044 0.089,0.088 0.136,0.135c0.072,0.07 0.072,0.07 0.145,0.144c0.05,0.049 0.099,0.098 0.151,0.149c0.105,0.105 0.21,0.208 0.315,0.313c0.159,0.16 0.321,0.318 0.483,0.476c0.101,0.101 0.201,0.202 0.304,0.303c0.048,0.048 0.097,0.095 0.147,0.144c0.045,0.044 0.089,0.089 0.134,0.135c0.04,0.039 0.08,0.078 0.12,0.119c0.101,0.14 0.105,0.211 0.083,0.381c-0.045,0.114 -0.045,0.114 -0.109,0.228c-0.023,0.044 -0.045,0.087 -0.069,0.131c-0.024,0.044 -0.049,0.09 -0.075,0.137c-0.23,0.44 -0.382,0.856 -0.452,1.353c-0.008,0.064 -0.018,0.127 -0.027,0.193c-0.067,0.86 0.256,1.647 0.715,2.355c0.079,0.175 0.062,0.26 0.017,0.447c-0.085,0.118 -0.085,0.118 -0.198,0.231c-0.043,0.042 -0.086,0.085 -0.13,0.129c-0.069,0.068 -0.069,0.068 -0.14,0.137c-0.047,0.047 -0.094,0.094 -0.144,0.142c-0.099,0.1 -0.199,0.199 -0.301,0.299c-0.153,0.151 -0.307,0.303 -0.459,0.456c-0.098,0.096 -0.196,0.192 -0.293,0.29c-0.047,0.045 -0.092,0.09 -0.14,0.138c-0.043,0.042 -0.085,0.083 -0.129,0.127c-0.038,0.038 -0.076,0.074 -0.114,0.113c-0.105,0.092 -0.207,0.161 -0.328,0.228c-0.326,-0.228 -0.533,-0.464 -0.747,-0.796c-0.045,-0.07 -0.045,-0.07 -0.092,-0.141c-1.013,-1.587 -1.435,-3.551 -1.028,-5.401c0.294,-1.225 0.795,-2.364 1.645,-3.306c0.059,-0.03 0.117,-0.058 0.177,-0.088c0.172,0.085 0.265,0.165 0.403,0.299Z" style="fill:#c16a6e;fill-rule:nonzero;"/><path d="M12.769,2.146c-0.141,0.341 -0.359,0.559 -0.616,0.815c-0.044,0.044 -0.087,0.087 -0.132,0.131c-0.091,0.091 -0.181,0.182 -0.272,0.271c-0.139,0.139 -0.278,0.278 -0.416,0.417c-0.088,0.09 -0.177,0.177 -0.265,0.265c-0.041,0.042 -0.082,0.084 -0.125,0.127c-0.391,0.383 -0.391,0.383 -0.64,0.44c-0.135,-0.039 -0.135,-0.039 -0.27,-0.116c-0.076,-0.041 -0.076,-0.041 -0.152,-0.083c-0.053,-0.029 -0.106,-0.06 -0.16,-0.091c-0.889,-0.471 -1.734,-0.634 -2.73,-0.379c-0.385,0.122 -0.739,0.307 -1.091,0.499c-0.117,0.062 -0.234,0.116 -0.353,0.169c-0.173,-0.085 -0.263,-0.162 -0.398,-0.297l-1.888,-1.888c-0.092,-0.104 -0.092,-0.104 -0.18,-0.281c0.18,-0.3 0.41,-0.461 0.699,-0.649c0.069,-0.046 0.069,-0.046 0.141,-0.092c1.075,-0.691 2.275,-1.152 3.563,-1.196c0.045,-0.002 0.09,-0.004 0.136,-0.005c0.6,-0.017 1.171,-0.006 1.757,0.137c0.04,0.009 0.078,0.017 0.119,0.027c1.084,0.246 2.645,0.8 3.273,1.779Z" style="fill:#c16a6e;fill-rule:nonzero;"/><path d="M13.823,3.169c1.133,1.001 1.707,2.538 1.894,4.006c0.01,0.076 0.021,0.153 0.031,0.23c0.199,1.669 -0.334,3.472 -1.309,4.834c-0.186,0.227 -0.394,0.426 -0.616,0.617c-0.173,-0.094 -0.304,-0.202 -0.443,-0.342l-1.845,-1.845c-0.09,-0.102 -0.09,-0.102 -0.178,-0.279c0.044,-0.119 0.044,-0.119 0.121,-0.256c0.026,-0.05 0.054,-0.101 0.082,-0.152c0.029,-0.054 0.059,-0.108 0.088,-0.164c0.461,-0.881 0.63,-1.735 0.407,-2.715c-0.127,-0.366 -0.313,-0.702 -0.507,-1.035c-0.028,-0.051 -0.055,-0.101 -0.084,-0.153c-0.026,-0.044 -0.052,-0.089 -0.078,-0.135c-0.037,-0.184 0.017,-0.281 0.115,-0.439c0.136,-0.184 0.292,-0.345 0.455,-0.505c0.037,-0.036 0.072,-0.074 0.11,-0.111c0.077,-0.077 0.155,-0.155 0.233,-0.231c0.117,-0.116 0.234,-0.234 0.35,-0.351c0.368,-0.37 0.72,-0.709 1.174,-0.974Z" style="fill:#c16a6e;fill-rule:nonzero;"/><path d="M10.743,11.619l0.729,0.729c0.155,0.157 0.313,0.313 0.47,0.47l0.573,0.573c0.038,0.037 0.077,0.077 0.115,0.117c0.094,0.104 0.094,0.104 0.182,0.28c-0.163,0.257 -0.351,0.428 -0.6,0.6c-0.038,0.026 -0.076,0.052 -0.115,0.079c-1.257,0.842 -2.625,1.211 -4.129,1.258c-0.049,0.003 -0.097,0.007 -0.147,0.01c-1.415,0.065 -3.064,-0.555 -4.169,-1.419c-0.096,-0.091 -0.19,-0.184 -0.283,-0.279c-0.047,-0.046 -0.093,-0.094 -0.141,-0.141c-0.051,-0.053 -0.051,-0.053 -0.103,-0.108c0.203,-0.35 0.432,-0.636 0.72,-0.921c0.04,-0.038 0.077,-0.077 0.118,-0.119c0.081,-0.081 0.162,-0.162 0.245,-0.243c0.125,-0.124 0.248,-0.249 0.372,-0.373c0.079,-0.081 0.159,-0.159 0.24,-0.238c0.036,-0.038 0.072,-0.075 0.111,-0.113c0.201,-0.2 0.384,-0.367 0.66,-0.459c0.14,0.033 0.14,0.033 0.275,0.112c0.051,0.026 0.102,0.054 0.153,0.082c0.053,0.031 0.106,0.06 0.16,0.092c0.472,0.252 0.898,0.449 1.437,0.507c0.056,0.005 0.113,0.012 0.17,0.018c0.802,0.042 1.53,-0.266 2.217,-0.645c0.113,-0.059 0.228,-0.113 0.343,-0.166c0.172,0.086 0.262,0.163 0.397,0.297Z" style="fill:#c16a6e;fill-rule:nonzero;"/></svg>