<?xml version="1.0" encoding="UTF-8" standalone="no"?><!DOCTYPE svg PUBLIC "-//W3C//DTD SVG 1.1//EN" "http://www.w3.org/Graphics/SVG/1.1/DTD/svg11.dtd"><svg width="100%" height="100%" viewBox="0 0 16 16" version="1.1" xmlns="http://www.w3.org/2000/svg" xmlns:xlink="http://www.w3.org/1999/xlink" xml:space="preserve" xmlns:serif="http://www.serif.com/" style="fill-rule:evenodd;clip-rule:evenodd;stroke-linecap:round;stroke-linejoin:round;stroke-miterlimit:1.5;"><path d="M12.472,8.319l-0,3.605c-0,0.349 -0.283,0.632 -0.632,0.632l-3.588,0c0.188,0.29 0.297,0.636 0.297,1.007c0,1.023 -0.831,1.854 -1.854,1.854c-1.023,0 -1.854,-0.831 -1.854,-1.854c0,-0.371 0.11,-0.717 0.298,-1.007l-3.638,0c-0.349,0 -0.632,-0.283 -0.632,-0.632l0,-3.772c0.316,0.251 0.716,0.4 1.15,0.4c1.023,0 1.854,-0.83 1.854,-1.853c0,-1.024 -0.831,-1.854 -1.854,-1.854c-0.434,-0 -0.834,0.149 -1.15,0.4l0,-3.66c0,-0.348 0.283,-0.631 0.632,-0.631l3.822,-0c-0.138,0.259 -0.217,0.556 -0.217,0.871c-0,1.023 0.831,1.854 1.854,1.854c1.023,-0 1.854,-0.831 1.854,-1.854c-0,-0.315 -0.079,-0.612 -0.218,-0.871l3.244,-0c0.349,-0 0.632,0.283 0.632,0.631l-0,3.34c0.228,-0.101 0.481,-0.157 0.746,-0.157c1.023,-0 1.854,0.831 1.854,1.854c-0,1.023 -0.831,1.854 -1.854,1.854c-0.265,-0 -0.518,-0.056 -0.746,-0.157Z" style="fill:#94c4de;stroke:#000;stroke-width:0.05px;"/></svg>